<svg width="81" height="89" viewBox="0 0 81 89" xmlns="http://www.w3.org/2000/svg">
  <path d="M47.126 49.975l11.189 9.058c2.34 1.892 3.685 4.688 3.685 7.67v13.929C62 85.247 58.17 89 53.463 89H29.537C24.83 89 21 85.247 21 80.632v-13.93c0-2.98 1.344-5.777 3.685-7.672l11.19-9.052c3.257-2.635 7.988-2.638 11.25-.003zM41.5 54a3.09 3.09 0 0 0-1.936.675l-10.993 8.83A4.15 4.15 0 0 0 27 66.75v13.58c0 1.473 1.23 2.67 2.744 2.67h23.512C54.77 83 56 81.803 56 80.331V66.75a4.15 4.15 0 0 0-1.572-3.245l-10.993-8.83A3.088 3.088 0 0 0 41.501 54zM40.974.918c22.055 0 40 18.614 40 41.492 0 10.17-3.58 19.95-10.084 27.545a2.715 2.715 0 0 1-2.067.963 2.7 2.7 0 0 1-1.836-.722c-1.141-1.053-1.244-2.865-.232-4.049 5.606-6.543 8.69-14.975 8.69-23.737 0-19.715-15.462-35.757-34.471-35.757-19.006 0-34.472 16.042-34.472 35.757 0 8.762 3.085 17.189 8.688 23.732 1.012 1.187.91 2.996-.232 4.048a2.698 2.698 0 0 1-3.903-.238C4.553 62.357.974 52.577.974 42.41c0-22.878 17.942-41.492 40-41.492zm.497 20c11.855 0 21.503 10.25 21.503 22.85a24.32 24.32 0 0 1-.737 5.95c-.334 1.325-1.462 2.2-2.692 2.2-.24 0-.483-.032-.725-.104-1.488-.424-2.372-2.049-1.973-3.63a18.04 18.04 0 0 0 .547-4.415c0-9.33-7.143-16.92-15.923-16.92-8.775 0-15.917 7.59-15.917 16.92 0 1.494.184 2.977.547 4.41.399 1.58-.483 3.208-1.973 3.633-1.473.43-3.016-.51-3.418-2.094a24.32 24.32 0 0 1-.736-5.95c0-12.6 9.642-22.85 21.497-22.85zm-.497 18a2.999 2.999 0 1 1 0 6 3 3 0 0 1 0-6z" fill-rule="evenodd"/>
</svg>
