<svg width="88" height="88" viewBox="0 0 88 88" xmlns="http://www.w3.org/2000/svg">
  <path d="M45.563 0a9.2 9.2 0 0 1 8.699 6.208l2.44 7.088 6.622-3.308a9.18 9.18 0 0 1 10.61 1.725l2.284 2.28a9.203 9.203 0 0 1 1.76 10.539l-3.286 6.736 7.019 2.344A9.19 9.19 0 0 1 88 42.338v3.228a9.193 9.193 0 0 1-6.208 8.696l-7.088 2.44 3.308 6.622a9.182 9.182 0 0 1-1.725 10.613l-2.28 2.281a9.203 9.203 0 0 1-10.542 1.764l-6.733-3.287-2.347 7.019A9.18 9.18 0 0 1 45.659 88h-3.225a9.194 9.194 0 0 1-8.696-6.205l-2.44-7.088-6.62 3.305a9.192 9.192 0 0 1-10.615-1.725l-2.281-2.28a9.203 9.203 0 0 1-1.764-10.542l3.287-6.733-7.019-2.347A9.19 9.19 0 0 1 0 45.662v-3.228a9.204 9.204 0 0 1 6.205-8.699l7.091-2.436-3.308-6.623a9.186 9.186 0 0 1 1.722-10.613l2.284-2.284a9.207 9.207 0 0 1 10.538-1.76l6.736 3.286 2.347-7.019A9.184 9.184 0 0 1 42.338 0h3.225zm0 6.01h-3.225a3.193 3.193 0 0 0-3.026 2.178L36.2 17.515a3.007 3.007 0 0 1-1.763 1.851c-.553.21-.839.322-1.121.445a3.023 3.023 0 0 1-2.524-.051l-8.895-4.34a3.19 3.19 0 0 0-3.654.61l-2.28 2.285a3.18 3.18 0 0 0-.598 3.677l4.327 8.663c.405.815.42 1.764.042 2.59-.183.412-.36.827-.523 1.248a3.01 3.01 0 0 1-1.824 1.754l-9.225 3.174a3.188 3.188 0 0 0-2.151 3.013v3.228c0 1.373.874 2.587 2.178 3.023l8.997 3.004c.862.289 1.544.95 1.863 1.8.189.511.378 1.016.598 1.509a3 3 0 0 1-.048 2.536l-4.18 8.567a3.2 3.2 0 0 0 .613 3.657l2.28 2.28a3.18 3.18 0 0 0 3.681.598l8.342-4.168a3.01 3.01 0 0 1 2.602-.039c.538.247 1.088.472 1.647.683a3.014 3.014 0 0 1 1.779 1.835l3.056 8.892a3.194 3.194 0 0 0 3.016 2.151h3.225a3.177 3.177 0 0 0 3.023-2.178l2.96-8.843a2.994 2.994 0 0 1 1.778-1.857 26.936 26.936 0 0 0 1.665-.692 2.998 2.998 0 0 1 2.566.036l8.45 4.126a3.196 3.196 0 0 0 3.657-.613l2.28-2.28a3.187 3.187 0 0 0 .598-3.678l-4.222-8.456a3.002 3.002 0 0 1-.06-2.563c.217-.49.409-.992.592-1.497a3.013 3.013 0 0 1 1.845-1.803l9.045-3.113a3.186 3.186 0 0 0 2.154-3.013v-3.228c0-1.373-.877-2.59-2.178-3.023l-9.174-3.065a2.997 2.997 0 0 1-1.848-1.76 25.533 25.533 0 0 0-.529-1.25 3.002 3.002 0 0 1 .036-2.563l4.282-8.78a3.19 3.19 0 0 0-.61-3.655l-2.284-2.28a3.178 3.178 0 0 0-3.674-.598l-8.78 4.384a2.99 2.99 0 0 1-2.549.063c-.306-.135-.619-.252-.931-.373-.833-.318-1.656-1.054-1.944-1.896l-3.228-9.38a3.191 3.191 0 0 0-3.016-2.152zM45.5 27C55.7 27 64 35.298 64 45.498 64 55.702 55.7 64 45.5 64S27 55.702 27 45.498C27 35.298 35.3 27 45.5 27zm0 6.184c-6.79 0-12.316 5.525-12.316 12.314 0 6.793 5.526 12.318 12.316 12.318 6.79 0 12.316-5.525 12.316-12.318 0-6.79-5.526-12.314-12.316-12.314zM45.497 42a3.5 3.5 0 1 1 0 7A3.498 3.498 0 0 1 42 45.5c0-1.934 1.566-3.5 3.497-3.5z" fill-rule="evenodd"/>
</svg>
