<svg width="86" height="89" viewBox="0 0 86 89" xmlns="http://www.w3.org/2000/svg">
  <path d="M33.765 3.333a14.456 14.456 0 0 1 18.467 0l28.114 23.351A15.641 15.641 0 0 1 86 38.754v37.78C86 83.409 80.437 89 73.604 89H12.393C5.56 89 0 83.408 0 76.535V38.754c0-4.688 2.061-9.089 5.654-12.073zm9.232 2.578c-1.946 0-3.896.66-5.486 1.982L9.397 31.245a9.727 9.727 0 0 0-3.517 7.509v37.78c0 3.614 2.92 6.551 6.513 6.551h61.211c3.593 0 6.516-2.937 6.516-6.55V38.754a9.737 9.737 0 0 0-3.517-7.51L48.486 7.894a8.57 8.57 0 0 0-5.489-1.982zM65.953 72C67.638 72 69 73.568 69 75.5S67.638 79 65.953 79H19.047C17.365 79 16 77.432 16 75.5s1.365-3.5 3.047-3.5z" fill-rule="evenodd"/>
</svg>
